<mxfile host="app.diagrams.net" modified="2024-07-16T09:50:41.262Z" agent="Mozilla/5.0 (X11; Linux x86_64; rv:127.0) Gecko/20100101 Firefox/127.0" etag="iLepyBCMyEfIWHmFV-PD" version="24.6.5" type="github">
  <diagram name="Page-1" id="4DMw4G6NRO1B1iqbakd1">
    <mxGraphModel dx="1434" dy="847" grid="1" gridSize="10" guides="1" tooltips="1" connect="1" arrows="1" fold="1" page="1" pageScale="1" pageWidth="850" pageHeight="1100" math="0" shadow="0">
      <root>
        <mxCell id="0" />
        <mxCell id="1" parent="0" />
        <mxCell id="_bFHYinNKXLDysfxIv_O-36" value="" style="rounded=1;whiteSpace=wrap;html=1;fillColor=#dae8fc;strokeColor=#6c8ebf;" parent="1" vertex="1">
          <mxGeometry x="310" y="280" width="280" height="240" as="geometry" />
        </mxCell>
        <mxCell id="_bFHYinNKXLDysfxIv_O-26" value="" style="rounded=1;whiteSpace=wrap;html=1;fillColor=#f8cecc;strokeColor=#b85450;" parent="1" vertex="1">
          <mxGeometry x="320" y="290" width="260" height="150" as="geometry" />
        </mxCell>
        <mxCell id="_bFHYinNKXLDysfxIv_O-16" value="MUX" style="shape=trapezoid;perimeter=trapezoidPerimeter;whiteSpace=wrap;html=1;fixedSize=1;rotation=90;" parent="1" vertex="1">
          <mxGeometry x="413.75" y="331.25" width="97.5" height="35" as="geometry" />
        </mxCell>
        <mxCell id="_bFHYinNKXLDysfxIv_O-18" value="&lt;div&gt;BRAM&lt;/div&gt;&lt;div&gt;&lt;font style=&quot;font-size: 8px;&quot;&gt;True Dual Port&lt;/font&gt;&lt;br&gt;&lt;/div&gt;" style="whiteSpace=wrap;html=1;aspect=fixed;" parent="1" vertex="1">
          <mxGeometry x="520" y="330" width="53.5" height="53.5" as="geometry" />
        </mxCell>
        <mxCell id="_bFHYinNKXLDysfxIv_O-63" style="edgeStyle=orthogonalEdgeStyle;rounded=0;orthogonalLoop=1;jettySize=auto;html=1;entryX=0.75;entryY=0;entryDx=0;entryDy=0;" parent="1" source="_bFHYinNKXLDysfxIv_O-22" target="_bFHYinNKXLDysfxIv_O-41" edge="1">
          <mxGeometry relative="1" as="geometry" />
        </mxCell>
        <mxCell id="_bFHYinNKXLDysfxIv_O-64" style="edgeStyle=orthogonalEdgeStyle;rounded=0;orthogonalLoop=1;jettySize=auto;html=1;entryX=1;entryY=0.5;entryDx=0;entryDy=0;" parent="1" source="_bFHYinNKXLDysfxIv_O-22" target="_bFHYinNKXLDysfxIv_O-16" edge="1">
          <mxGeometry relative="1" as="geometry" />
        </mxCell>
        <mxCell id="_bFHYinNKXLDysfxIv_O-22" value="&lt;div&gt;CLK2&lt;/div&gt;" style="text;html=1;align=center;verticalAlign=middle;whiteSpace=wrap;rounded=0;strokeColor=default;" parent="1" vertex="1">
          <mxGeometry x="445.25" y="410" width="34.5" height="20" as="geometry" />
        </mxCell>
        <mxCell id="_bFHYinNKXLDysfxIv_O-39" style="edgeStyle=orthogonalEdgeStyle;rounded=0;orthogonalLoop=1;jettySize=auto;html=1;entryX=0.5;entryY=1;entryDx=0;entryDy=0;" parent="1" target="_bFHYinNKXLDysfxIv_O-37" edge="1">
          <mxGeometry relative="1" as="geometry">
            <mxPoint x="468.52" y="520" as="sourcePoint" />
            <mxPoint x="469" y="500" as="targetPoint" />
          </mxGeometry>
        </mxCell>
        <mxCell id="_bFHYinNKXLDysfxIv_O-25" value="AXI interconnect" style="rounded=0;whiteSpace=wrap;html=1;" parent="1" vertex="1">
          <mxGeometry x="402.5" y="520" width="120" height="30" as="geometry" />
        </mxCell>
        <mxCell id="_bFHYinNKXLDysfxIv_O-27" style="edgeStyle=orthogonalEdgeStyle;rounded=0;orthogonalLoop=1;jettySize=auto;html=1;exitX=0.5;exitY=1;exitDx=0;exitDy=0;" parent="1" source="_bFHYinNKXLDysfxIv_O-26" target="_bFHYinNKXLDysfxIv_O-26" edge="1">
          <mxGeometry relative="1" as="geometry" />
        </mxCell>
        <mxCell id="_bFHYinNKXLDysfxIv_O-31" value="" style="rounded=1;whiteSpace=wrap;html=1;fillColor=#d5e8d4;strokeColor=#82b366;" parent="1" vertex="1">
          <mxGeometry x="348" y="550" width="230" height="30" as="geometry" />
        </mxCell>
        <mxCell id="_bFHYinNKXLDysfxIv_O-32" value="" style="shape=flexArrow;endArrow=classic;html=1;rounded=0;entryX=0.554;entryY=1.012;entryDx=0;entryDy=0;entryPerimeter=0;" parent="1" edge="1">
          <mxGeometry width="50" height="50" relative="1" as="geometry">
            <mxPoint x="404.06820841904266" y="350.14823449753726" as="sourcePoint" />
            <mxPoint x="444.58000000000004" y="350.01500000000004" as="targetPoint" />
          </mxGeometry>
        </mxCell>
        <mxCell id="_bFHYinNKXLDysfxIv_O-34" value="PL" style="text;html=1;align=center;verticalAlign=middle;whiteSpace=wrap;rounded=0;" parent="1" vertex="1">
          <mxGeometry x="320" y="296" width="41" height="20" as="geometry" />
        </mxCell>
        <mxCell id="_bFHYinNKXLDysfxIv_O-35" value="PS" style="text;html=1;align=center;verticalAlign=middle;whiteSpace=wrap;rounded=0;" parent="1" vertex="1">
          <mxGeometry x="342" y="551" width="41" height="20" as="geometry" />
        </mxCell>
        <mxCell id="_bFHYinNKXLDysfxIv_O-42" style="edgeStyle=orthogonalEdgeStyle;rounded=0;orthogonalLoop=1;jettySize=auto;html=1;" parent="1" edge="1">
          <mxGeometry relative="1" as="geometry">
            <mxPoint x="446.3" y="485" as="sourcePoint" />
            <mxPoint x="404" y="470" as="targetPoint" />
            <Array as="points">
              <mxPoint x="404.3" y="485" />
            </Array>
          </mxGeometry>
        </mxCell>
        <mxCell id="_bFHYinNKXLDysfxIv_O-37" value="GPIO" style="whiteSpace=wrap;html=1;aspect=fixed;" parent="1" vertex="1">
          <mxGeometry x="446" y="460" width="40" height="40" as="geometry" />
        </mxCell>
        <mxCell id="_bFHYinNKXLDysfxIv_O-41" value="&lt;div&gt;XPM CDC&lt;/div&gt;&lt;div&gt;&lt;font style=&quot;font-size: 8px;&quot;&gt;Full handshake&lt;/font&gt;&lt;br&gt;&lt;/div&gt;" style="rounded=0;whiteSpace=wrap;html=1;" parent="1" vertex="1">
          <mxGeometry x="339" y="440" width="95" height="30" as="geometry" />
        </mxCell>
        <mxCell id="_bFHYinNKXLDysfxIv_O-43" value="&lt;div&gt;CLK1&lt;br&gt;&lt;/div&gt;" style="text;html=1;align=center;verticalAlign=middle;whiteSpace=wrap;rounded=0;fillColor=none;strokeColor=default;" parent="1" vertex="1">
          <mxGeometry x="349.62" y="490" width="35" height="20" as="geometry" />
        </mxCell>
        <mxCell id="_bFHYinNKXLDysfxIv_O-46" value="" style="shape=parallelogram;html=1;strokeWidth=2;perimeter=parallelogramPerimeter;whiteSpace=wrap;rounded=1;arcSize=12;size=0.23;" parent="1" vertex="1">
          <mxGeometry x="322" y="320.25" width="80.25" height="40" as="geometry" />
        </mxCell>
        <mxCell id="_bFHYinNKXLDysfxIv_O-47" value="" style="shape=parallelogram;html=1;strokeWidth=2;perimeter=parallelogramPerimeter;whiteSpace=wrap;rounded=1;arcSize=12;size=0.23;" parent="1" vertex="1">
          <mxGeometry x="327" y="327.25" width="80.25" height="40" as="geometry" />
        </mxCell>
        <mxCell id="_bFHYinNKXLDysfxIv_O-48" value="&lt;div&gt;16bit&lt;/div&gt;&lt;div&gt;SIGNALS&lt;br&gt;&lt;/div&gt;" style="shape=parallelogram;html=1;strokeWidth=2;perimeter=parallelogramPerimeter;whiteSpace=wrap;rounded=1;arcSize=12;size=0.23;" parent="1" vertex="1">
          <mxGeometry x="333" y="334.25" width="80.25" height="40" as="geometry" />
        </mxCell>
        <mxCell id="_bFHYinNKXLDysfxIv_O-55" style="edgeStyle=orthogonalEdgeStyle;rounded=0;orthogonalLoop=1;jettySize=auto;html=1;entryX=0.694;entryY=0.992;entryDx=0;entryDy=0;entryPerimeter=0;" parent="1" source="_bFHYinNKXLDysfxIv_O-18" target="_bFHYinNKXLDysfxIv_O-36" edge="1">
          <mxGeometry relative="1" as="geometry">
            <Array as="points">
              <mxPoint x="504" y="370" />
              <mxPoint x="504" y="404" />
              <mxPoint x="504" y="404" />
            </Array>
          </mxGeometry>
        </mxCell>
        <mxCell id="_bFHYinNKXLDysfxIv_O-62" style="edgeStyle=orthogonalEdgeStyle;rounded=0;orthogonalLoop=1;jettySize=auto;html=1;entryX=0.298;entryY=1.033;entryDx=0;entryDy=0;entryPerimeter=0;" parent="1" source="_bFHYinNKXLDysfxIv_O-43" target="_bFHYinNKXLDysfxIv_O-41" edge="1">
          <mxGeometry relative="1" as="geometry" />
        </mxCell>
        <mxCell id="_bFHYinNKXLDysfxIv_O-65" style="edgeStyle=orthogonalEdgeStyle;rounded=0;orthogonalLoop=1;jettySize=auto;html=1;entryX=-0.024;entryY=0.351;entryDx=0;entryDy=0;entryPerimeter=0;" parent="1" source="_bFHYinNKXLDysfxIv_O-16" target="_bFHYinNKXLDysfxIv_O-18" edge="1">
          <mxGeometry relative="1" as="geometry" />
        </mxCell>
        <mxCell id="_bFHYinNKXLDysfxIv_O-66" style="edgeStyle=orthogonalEdgeStyle;rounded=0;orthogonalLoop=1;jettySize=auto;html=1;entryX=0.466;entryY=1.038;entryDx=0;entryDy=0;entryPerimeter=0;" parent="1" source="_bFHYinNKXLDysfxIv_O-41" target="_bFHYinNKXLDysfxIv_O-48" edge="1">
          <mxGeometry relative="1" as="geometry">
            <Array as="points">
              <mxPoint x="370" y="407" />
              <mxPoint x="370" y="407" />
            </Array>
          </mxGeometry>
        </mxCell>
      </root>
    </mxGraphModel>
  </diagram>
</mxfile>
